# MagicaVoxel @ Ephtracy

# group
o 

# material
mtllib Player-2.mtl
usemtl palette

# normals
vn -1 0 0
vn 1 0 0
vn 0 0 1
vn 0 0 -1
vn 0 -1 0
vn 0 1 0

# texcoords
vt 0.306641 0.5
vt 0.310547 0.5

# verts
v 0.3 0.8 -0.6
v 0.3 0.8 -0.7
v 0.3 1 -0.7
v 0.3 1 -0.8
v 0.3 1.1 -0.7
v 0.3 1.1 -0.8
v 0.3 1.2 -0.6
v 0.3 1.2 -0.7
v 0.3 1.3 -0.8
v 0.3 1.3 -0.9
v 0.3 1.7 -0.6
v 0.3 1.7 -0.7
v 0.3 1.8 -0.7
v 0.3 1.8 -0.8
v 0.3 1.9 -0.8
v 0.3 1.9 -0.9
v 0.4 0.9 -0.7
v 0.4 0.9 -0.8
v 0.4 1 -0.7
v 0.4 1 -0.8
v 0.4 1.1 -0.5
v 0.4 1.1 -0.6
v 0.4 1.2 -0.5
v 0.4 1.2 -0.6
v 0.4 1.4 -0.5
v 0.4 1.4 -0.6
v 0.4 1.7 -0.6
v 0.4 1.7 -0.7
v 0.4 1.8 -0.6
v 0.4 1.8 -0.7
v 0.4 1.8 -0.8
v 0.4 1.9 -0.7
v 0.4 1.9 -0.8
v 0.4 1.9 -0.9
v 0.4 2 -0.8
v 0.4 2 -0.9
v 0.5 1.4 -0.5
v 0.5 1.4 -0.6
v 0.5 1.5 -0.5
v 0.5 1.5 -0.6
v 0.6 0.8 -0.6
v 0.6 0.8 -0.7
v 0.6 0.9 -0.6
v 0.6 0.9 -0.7
v 0.5 0.8 -0.6
v 0.5 0.8 -0.7
v 0.5 0.9 -0.6
v 0.5 0.9 -0.7
v 0.6 1.4 -0.5
v 0.6 1.4 -0.6
v 0.6 1.5 -0.5
v 0.6 1.5 -0.6
v 0.7 0.8 -0.6
v 0.7 0.8 -0.7
v 0.7 0.9 -0.6
v 0.7 0.9 -0.7
v 0.7 0.9 -0.8
v 0.7 1.1 -0.5
v 0.7 1.1 -0.6
v 0.7 1.1 -0.7
v 0.7 1.1 -0.8
v 0.7 1.2 -0.5
v 0.7 1.2 -0.6
v 0.7 1.4 -0.5
v 0.7 1.4 -0.6
v 0.7 1.6 -0.6
v 0.7 1.6 -0.7
v 0.7 1.8 -0.6
v 0.7 1.8 -0.7
v 0.7 1.8 -0.8
v 0.7 1.9 -0.7
v 0.7 1.9 -0.8
v 0.7 1.9 -0.9
v 0.7 2 -0.8
v 0.7 2 -0.9
v 0.8 0.9 -0.6
v 0.8 0.9 -0.7
v 0.8 1.1 -0.7
v 0.8 1.1 -0.8
v 0.8 1.2 -0.6
v 0.8 1.2 -0.7
v 0.8 1.3 -0.8
v 0.8 1.3 -0.9
v 0.8 1.6 -0.6
v 0.8 1.6 -0.7
v 0.8 1.8 -0.7
v 0.8 1.8 -0.8
v 0.8 1.9 -0.8
v 0.8 1.9 -0.9
v 0.4 1.1 -0.5
v 0.4 1.2 -0.5
v 0.4 1.4 -0.5
v 0.5 1.2 -0.5
v 0.5 1.3 -0.5
v 0.5 1.4 -0.5
v 0.5 1.5 -0.5
v 0.6 1.2 -0.5
v 0.6 1.3 -0.5
v 0.6 1.4 -0.5
v 0.6 1.5 -0.5
v 0.7 1.1 -0.5
v 0.7 1.2 -0.5
v 0.7 1.4 -0.5
v 0.3 0.8 -0.6
v 0.3 1.2 -0.6
v 0.3 1.7 -0.6
v 0.4 1.1 -0.6
v 0.4 1.2 -0.6
v 0.4 1.4 -0.6
v 0.4 1.7 -0.6
v 0.4 1.8 -0.6
v 0.5 0.8 -0.6
v 0.5 0.9 -0.6
v 0.5 1.4 -0.6
v 0.5 1.5 -0.6
v 0.6 0.8 -0.6
v 0.6 0.9 -0.6
v 0.6 1.4 -0.6
v 0.6 1.5 -0.6
v 0.7 0.8 -0.6
v 0.7 0.9 -0.6
v 0.7 1.1 -0.6
v 0.7 1.2 -0.6
v 0.7 1.4 -0.6
v 0.7 1.6 -0.6
v 0.7 1.8 -0.6
v 0.8 0.9 -0.6
v 0.8 1.2 -0.6
v 0.8 1.6 -0.6
v 0.3 1.7 -0.7
v 0.3 1.8 -0.7
v 0.4 1.7 -0.7
v 0.4 1.8 -0.7
v 0.4 1.9 -0.7
v 0.7 1.6 -0.7
v 0.7 1.8 -0.7
v 0.7 1.9 -0.7
v 0.8 1.6 -0.7
v 0.8 1.8 -0.7
v 0.3 1.8 -0.8
v 0.3 1.9 -0.8
v 0.4 1.8 -0.8
v 0.4 1.9 -0.8
v 0.4 2 -0.8
v 0.7 1.8 -0.8
v 0.7 1.9 -0.8
v 0.7 2 -0.8
v 0.8 1.8 -0.8
v 0.8 1.9 -0.8
v 0.3 0.8 -0.7
v 0.3 1 -0.7
v 0.4 0.9 -0.7
v 0.4 1 -0.7
v 0.5 0.8 -0.7
v 0.5 0.9 -0.7
v 0.6 0.8 -0.7
v 0.6 0.9 -0.7
v 0.7 0.8 -0.7
v 0.7 0.9 -0.7
v 0.7 1.1 -0.7
v 0.8 0.9 -0.7
v 0.8 1.1 -0.7
v 0.3 1 -0.8
v 0.3 1.1 -0.8
v 0.3 1.3 -0.8
v 0.4 0.9 -0.8
v 0.4 1 -0.8
v 0.5 1 -0.8
v 0.5 1.1 -0.8
v 0.6 1 -0.8
v 0.6 1.1 -0.8
v 0.7 0.9 -0.8
v 0.7 1.1 -0.8
v 0.8 1.1 -0.8
v 0.8 1.3 -0.8
v 0.3 1.3 -0.9
v 0.3 1.9 -0.9
v 0.4 1.9 -0.9
v 0.4 2 -0.9
v 0.7 1.9 -0.9
v 0.7 2 -0.9
v 0.8 1.3 -0.9
v 0.8 1.9 -0.9
v 0.3 0.8 -0.6
v 0.5 0.8 -0.6
v 0.6 0.8 -0.6
v 0.7 0.8 -0.6
v 0.3 0.8 -0.7
v 0.5 0.8 -0.7
v 0.6 0.8 -0.7
v 0.7 0.8 -0.7
v 0.5 0.9 -0.6
v 0.6 0.9 -0.6
v 0.7 0.9 -0.6
v 0.8 0.9 -0.6
v 0.4 0.9 -0.7
v 0.5 0.9 -0.7
v 0.6 0.9 -0.7
v 0.7 0.9 -0.7
v 0.8 0.9 -0.7
v 0.4 0.9 -0.8
v 0.7 0.9 -0.8
v 0.3 1 -0.7
v 0.4 1 -0.7
v 0.3 1 -0.8
v 0.4 1 -0.8
v 0.4 1.1 -0.5
v 0.7 1.1 -0.5
v 0.4 1.1 -0.6
v 0.7 1.1 -0.6
v 0.7 1.1 -0.7
v 0.8 1.1 -0.7
v 0.7 1.1 -0.8
v 0.8 1.1 -0.8
v 0.3 1.3 -0.8
v 0.8 1.3 -0.8
v 0.3 1.3 -0.9
v 0.8 1.3 -0.9
v 0.4 1.4 -0.5
v 0.5 1.4 -0.5
v 0.6 1.4 -0.5
v 0.7 1.4 -0.5
v 0.4 1.4 -0.6
v 0.5 1.4 -0.6
v 0.6 1.4 -0.6
v 0.7 1.4 -0.6
v 0.5 1.5 -0.5
v 0.6 1.5 -0.5
v 0.5 1.5 -0.6
v 0.6 1.5 -0.6
v 0.7 1.6 -0.6
v 0.8 1.6 -0.6
v 0.7 1.6 -0.7
v 0.8 1.6 -0.7
v 0.3 1.7 -0.6
v 0.4 1.7 -0.6
v 0.3 1.7 -0.7
v 0.4 1.7 -0.7
v 0.4 1.8 -0.6
v 0.7 1.8 -0.6
v 0.3 1.8 -0.7
v 0.4 1.8 -0.7
v 0.7 1.8 -0.7
v 0.8 1.8 -0.7
v 0.3 1.8 -0.8
v 0.4 1.8 -0.8
v 0.7 1.8 -0.8
v 0.8 1.8 -0.8
v 0.4 1.9 -0.7
v 0.7 1.9 -0.7
v 0.3 1.9 -0.8
v 0.4 1.9 -0.8
v 0.7 1.9 -0.8
v 0.8 1.9 -0.8
v 0.3 1.9 -0.9
v 0.4 1.9 -0.9
v 0.7 1.9 -0.9
v 0.8 1.9 -0.9
v 0.4 2 -0.8
v 0.7 2 -0.8
v 0.4 2 -0.9
v 0.7 2 -0.9

# faces
f 3/2/1 2/2/1 1/2/1
f 5/2/1 3/2/1 1/2/1
f 5/2/1 4/2/1 3/2/1
f 6/2/1 4/2/1 5/2/1
f 7/2/1 5/2/1 1/2/1
f 8/1/1 6/1/1 5/1/1
f 8/2/1 5/2/1 7/2/1
f 9/1/1 8/1/1 7/1/1
f 9/1/1 6/1/1 8/1/1
f 11/1/1 9/1/1 7/1/1
f 11/1/1 10/1/1 9/1/1
f 12/1/1 10/1/1 11/1/1
f 13/1/1 10/1/1 12/1/1
f 14/1/1 10/1/1 13/1/1
f 15/1/1 10/1/1 14/1/1
f 16/1/1 10/1/1 15/1/1
f 19/2/1 18/2/1 17/2/1
f 20/2/1 18/2/1 19/2/1
f 23/2/1 22/2/1 21/2/1
f 24/2/1 22/2/1 23/2/1
f 25/1/1 24/1/1 23/1/1
f 26/1/1 24/1/1 25/1/1
f 29/1/1 28/1/1 27/1/1
f 30/1/1 28/1/1 29/1/1
f 32/1/1 31/1/1 30/1/1
f 33/1/1 31/1/1 32/1/1
f 35/1/1 34/1/1 33/1/1
f 36/1/1 34/1/1 35/1/1
f 39/1/1 38/1/1 37/1/1
f 40/1/1 38/1/1 39/1/1
f 43/2/1 42/2/1 41/2/1
f 44/2/1 42/2/1 43/2/1
f 45/2/2 46/2/2 47/2/2
f 47/2/2 46/2/2 48/2/2
f 49/1/2 50/1/2 51/1/2
f 51/1/2 50/1/2 52/1/2
f 53/2/2 54/2/2 55/2/2
f 55/2/2 54/2/2 56/2/2
f 56/2/2 57/2/2 60/2/2
f 60/2/2 57/2/2 61/2/2
f 58/2/2 59/2/2 62/2/2
f 62/2/2 59/2/2 63/2/2
f 62/1/2 63/1/2 64/1/2
f 64/1/2 63/1/2 65/1/2
f 66/1/2 67/1/2 68/1/2
f 68/1/2 67/1/2 69/1/2
f 69/1/2 70/1/2 71/1/2
f 71/1/2 70/1/2 72/1/2
f 72/1/2 73/1/2 74/1/2
f 74/1/2 73/1/2 75/1/2
f 76/2/2 77/2/2 78/2/2
f 76/2/2 78/2/2 80/2/2
f 78/1/2 79/1/2 81/1/2
f 80/2/2 78/2/2 81/2/2
f 80/1/2 81/1/2 82/1/2
f 81/1/2 79/1/2 82/1/2
f 80/1/2 82/1/2 84/1/2
f 82/1/2 83/1/2 84/1/2
f 84/1/2 83/1/2 85/1/2
f 85/1/2 83/1/2 86/1/2
f 86/1/2 83/1/2 87/1/2
f 87/1/2 83/1/2 88/1/2
f 88/1/2 83/1/2 89/1/2
f 93/2/3 91/2/3 90/2/3
f 93/1/3 92/1/3 91/1/3
f 94/1/3 92/1/3 93/1/3
f 95/1/3 92/1/3 94/1/3
f 97/2/3 93/2/3 90/2/3
f 97/2/3 94/2/3 93/2/3
f 98/1/3 96/1/3 95/1/3
f 98/2/3 94/2/3 97/2/3
f 98/1/3 95/1/3 94/1/3
f 99/1/3 96/1/3 98/1/3
f 100/1/3 96/1/3 99/1/3
f 101/2/3 97/2/3 90/2/3
f 102/1/3 98/1/3 97/1/3
f 102/2/3 97/2/3 101/2/3
f 102/1/3 99/1/3 98/1/3
f 103/1/3 99/1/3 102/1/3
f 107/2/3 105/2/3 104/2/3
f 108/1/3 106/1/3 105/1/3
f 108/2/3 105/2/3 107/2/3
f 109/1/3 106/1/3 108/1/3
f 110/1/3 106/1/3 109/1/3
f 112/2/3 107/2/3 104/2/3
f 113/2/3 107/2/3 112/2/3
f 114/1/3 111/1/3 110/1/3
f 114/1/3 110/1/3 109/1/3
f 115/1/3 111/1/3 114/1/3
f 117/2/3 107/2/3 113/2/3
f 119/1/3 111/1/3 115/1/3
f 120/2/3 117/2/3 116/2/3
f 121/2/3 107/2/3 117/2/3
f 121/2/3 117/2/3 120/2/3
f 122/2/3 107/2/3 121/2/3
f 124/1/3 119/1/3 118/1/3
f 125/1/3 111/1/3 119/1/3
f 125/1/3 119/1/3 124/1/3
f 126/1/3 111/1/3 125/1/3
f 127/2/3 123/2/3 122/2/3
f 127/2/3 122/2/3 121/2/3
f 128/1/3 124/1/3 123/1/3
f 128/2/3 123/2/3 127/2/3
f 128/1/3 125/1/3 124/1/3
f 129/1/3 125/1/3 128/1/3
f 132/1/3 131/1/3 130/1/3
f 133/1/3 131/1/3 132/1/3
f 136/1/3 134/1/3 133/1/3
f 137/1/3 134/1/3 136/1/3
f 138/1/3 136/1/3 135/1/3
f 139/1/3 136/1/3 138/1/3
f 142/1/3 141/1/3 140/1/3
f 143/1/3 141/1/3 142/1/3
f 146/1/3 144/1/3 143/1/3
f 147/1/3 144/1/3 146/1/3
f 148/1/3 146/1/3 145/1/3
f 149/1/3 146/1/3 148/1/3
f 150/2/4 151/2/4 152/2/4
f 152/2/4 151/2/4 153/2/4
f 150/2/4 152/2/4 154/2/4
f 154/2/4 152/2/4 155/2/4
f 156/2/4 157/2/4 158/2/4
f 158/2/4 157/2/4 159/2/4
f 159/2/4 160/2/4 161/2/4
f 161/2/4 160/2/4 162/2/4
f 163/2/4 164/2/4 167/2/4
f 167/2/4 164/2/4 168/2/4
f 166/2/4 167/2/4 168/2/4
f 164/1/4 165/1/4 169/1/4
f 168/2/4 164/2/4 169/2/4
f 166/2/4 168/2/4 170/2/4
f 168/1/4 169/1/4 170/1/4
f 169/1/4 165/1/4 171/1/4
f 170/1/4 169/1/4 171/1/4
f 166/2/4 170/2/4 172/2/4
f 170/2/4 171/2/4 172/2/4
f 171/1/4 165/1/4 173/1/4
f 172/2/4 171/2/4 173/2/4
f 173/1/4 165/1/4 174/1/4
f 174/1/4 165/1/4 175/1/4
f 176/1/4 177/1/4 178/1/4
f 176/1/4 178/1/4 180/1/4
f 178/1/4 179/1/4 180/1/4
f 180/1/4 179/1/4 181/1/4
f 176/1/4 180/1/4 182/1/4
f 182/1/4 180/1/4 183/1/4
f 188/2/5 185/2/5 184/2/5
f 189/2/5 185/2/5 188/2/5
f 190/2/5 187/2/5 186/2/5
f 191/2/5 187/2/5 190/2/5
f 197/2/5 193/2/5 192/2/5
f 198/2/5 193/2/5 197/2/5
f 199/2/5 195/2/5 194/2/5
f 200/2/5 195/2/5 199/2/5
f 201/2/5 198/2/5 197/2/5
f 201/2/5 197/2/5 196/2/5
f 201/2/5 199/2/5 198/2/5
f 202/2/5 199/2/5 201/2/5
f 205/2/5 204/2/5 203/2/5
f 206/2/5 204/2/5 205/2/5
f 209/2/5 208/2/5 207/2/5
f 210/2/5 208/2/5 209/2/5
f 213/1/5 212/1/5 211/1/5
f 214/1/5 212/1/5 213/1/5
f 217/1/5 216/1/5 215/1/5
f 218/1/5 216/1/5 217/1/5
f 219/1/6 220/1/6 223/1/6
f 223/1/6 220/1/6 224/1/6
f 221/1/6 222/1/6 225/1/6
f 225/1/6 222/1/6 226/1/6
f 227/1/6 228/1/6 229/1/6
f 229/1/6 228/1/6 230/1/6
f 231/1/6 232/1/6 233/1/6
f 233/1/6 232/1/6 234/1/6
f 235/1/6 236/1/6 237/1/6
f 237/1/6 236/1/6 238/1/6
f 239/1/6 240/1/6 242/1/6
f 242/1/6 240/1/6 243/1/6
f 241/1/6 242/1/6 245/1/6
f 245/1/6 242/1/6 246/1/6
f 243/1/6 244/1/6 247/1/6
f 247/1/6 244/1/6 248/1/6
f 249/1/6 250/1/6 252/1/6
f 252/1/6 250/1/6 253/1/6
f 251/1/6 252/1/6 255/1/6
f 255/1/6 252/1/6 256/1/6
f 253/1/6 254/1/6 257/1/6
f 257/1/6 254/1/6 258/1/6
f 259/1/6 260/1/6 261/1/6
f 261/1/6 260/1/6 262/1/6
