# MagicaVoxel @ Ephtracy

# group
o 

# material
mtllib Player-3.mtl
usemtl palette

# normals
vn -1 0 0
vn 1 0 0
vn 0 0 1
vn 0 0 -1
vn 0 -1 0
vn 0 1 0

# texcoords
vt 0.310547 0.5
vt 0.486328 0.5
vt 0.509766 0.5
vt 0.701172 0.5

# verts
v 0 0.9 -0.6
v 0 0.9 -0.9
v 0 1 -0.6
v 0 1 -0.7
v 0 1 -0.8
v 0 1 -0.9
v 0 1.1 -0.7
v 0 1.1 -0.8
v 0.1 0.9 -0.5
v 0.1 0.9 -0.6
v 0.1 0.9 -0.9
v 0.1 0.9 -1
v 0.1 1 -0.5
v 0.1 1 -0.6
v 0.1 1 -0.7
v 0.1 1 -0.8
v 0.1 1 -0.9
v 0.1 1 -1
v 0.1 1.1 -0.6
v 0.1 1.1 -0.7
v 0.1 1.1 -0.8
v 0.1 1.1 -0.9
v 0.2 1 -0.5
v 0.2 1 -0.6
v 0.2 1 -0.9
v 0.2 1 -1
v 0.2 1.1 -0.6
v 0.2 1.1 -0.9
v 0.2 1.2 -0.5
v 0.2 1.2 -0.6
v 0.2 1.2 -0.8
v 0.2 1.2 -0.9
v 0.2 1.2 -1
v 0.2 1.3 -0.7
v 0.2 1.3 -0.8
v 0.2 1.3 -0.9
v 0.2 1.4 -0.6
v 0.2 1.4 -0.7
v 0.2 1.4 -0.8
v 0.2 1.5 -0.8
v 0.2 1.5 -0.9
v 0.2 1.6 -0.6
v 0.2 1.6 -0.7
v 0.2 1.6 -0.8
v 0.2 1.6 -0.9
v 0.2 1.7 -0.6
v 0.2 1.7 -0.7
v 0.2 1.7 -0.8
v 0.2 1.7 -0.9
v 0.2 1.8 -0.6
v 0.2 1.8 -0.7
v 0.2 1.8 -0.8
v 0.2 1.8 -0.9
v 0.2 1.9 -0.7
v 0.2 1.9 -0.8
v 0.2 2 -0.6
v 0.2 2 -0.7
v 0.2 2 -0.8
v 0.2 2 -0.9
v 0.3 1.2 -0.5
v 0.3 1.2 -0.6
v 0.3 1.2 -0.9
v 0.3 1.2 -1
v 0.3 1.3 -0.9
v 0.3 1.3 -1
v 0.3 1.4 -0.5
v 0.3 1.4 -0.6
v 0.3 1.4 -0.9
v 0.3 1.4 -1
v 0.3 1.5 -0.9
v 0.3 1.5 -1
v 0.3 1.6 -0.5
v 0.3 1.6 -0.6
v 0.3 1.6 -0.9
v 0.3 1.7 -0.6
v 0.3 1.7 -0.9
v 0.3 1.8 -0.5
v 0.3 1.8 -0.6
v 0.3 1.8 -0.9
v 0.3 1.8 -1
v 0.3 2 -0.5
v 0.3 2 -0.6
v 0.3 2 -0.9
v 0.3 2 -1
v 1 1 -0.5
v 1 1 -0.6
v 1 1 -0.9
v 1 1 -1
v 1 1.2 -0.5
v 1 1.2 -0.6
v 1 1.2 -0.9
v 1 1.2 -1
v 1 1.3 -0.5
v 1 1.3 -0.6
v 1 1.3 -0.9
v 1 1.3 -1
v 1 1.4 -0.9
v 1 1.4 -1
v 1 1.5 -0.5
v 1 1.5 -0.6
v 1 1.5 -0.9
v 1 1.5 -1
v 1 1.6 -0.5
v 1 1.6 -0.6
v 1 1.6 -0.9
v 1 1.6 -1
v 1 1.7 -0.5
v 1 1.7 -0.6
v 1 1.8 -0.9
v 1 1.8 -1
v 1 1.9 -0.5
v 1 1.9 -0.6
v 1 1.9 -0.9
v 1 2 -0.5
v 1 2 -0.6
v 1 2 -0.9
v 1 2 -1
v 1.1 0.9 -0.5
v 1.1 0.9 -1
v 1.1 1 -0.5
v 1.1 1 -0.6
v 1.1 1 -0.9
v 1.1 1 -1
v 1.1 1.2 -0.6
v 1.1 1.2 -0.8
v 1.1 1.2 -0.9
v 1.1 1.4 -0.7
v 1.1 1.4 -0.8
v 1.1 1.4 -0.9
v 1.1 1.5 -0.6
v 1.1 1.5 -0.7
v 1.1 1.5 -0.8
v 1.1 1.7 -0.6
v 1.1 1.7 -0.7
v 1.1 1.7 -0.8
v 1.1 1.8 -0.7
v 1.1 1.8 -0.8
v 1.1 1.8 -0.9
v 1.1 1.9 -0.8
v 1.1 1.9 -0.9
v 1.1 2 -0.6
v 1.1 2 -0.9
v 0.1 0.9 -0.5
v 0.1 1 -0.5
v 0.2 1 -0.5
v 0.2 1.2 -0.5
v 0.3 1.2 -0.5
v 0.3 1.4 -0.5
v 0.3 1.6 -0.5
v 0.3 1.8 -0.5
v 0.3 2 -0.5
v 0.4 1.3 -0.5
v 0.4 1.4 -0.5
v 0.4 1.6 -0.5
v 0.4 1.8 -0.5
v 0.4 1.9 -0.5
v 0.5 1.2 -0.5
v 0.5 1.3 -0.5
v 0.5 1.4 -0.5
v 0.5 1.9 -0.5
v 0.5 2 -0.5
v 0.6 1.5 -0.5
v 0.6 1.6 -0.5
v 0.6 1.8 -0.5
v 0.6 1.9 -0.5
v 0.7 1.2 -0.5
v 0.7 1.3 -0.5
v 0.7 1.5 -0.5
v 0.7 1.6 -0.5
v 0.7 1.8 -0.5
v 0.7 1.9 -0.5
v 0.7 2 -0.5
v 0.9 1.2 -0.5
v 0.9 1.3 -0.5
v 0.9 1.5 -0.5
v 0.9 1.6 -0.5
v 0.9 1.7 -0.5
v 0.9 1.9 -0.5
v 0.9 2 -0.5
v 1 1 -0.5
v 1 1.2 -0.5
v 1 1.3 -0.5
v 1 1.5 -0.5
v 1 1.6 -0.5
v 1 1.7 -0.5
v 1 1.9 -0.5
v 1 2 -0.5
v 1.1 0.9 -0.5
v 1.1 1 -0.5
v 0 0.9 -0.6
v 0 1 -0.6
v 0.1 0.9 -0.6
v 0.1 1 -0.6
v 0.1 1.1 -0.6
v 0.2 1 -0.6
v 0.2 1.1 -0.6
v 0.2 1.2 -0.6
v 0.2 1.4 -0.6
v 0.2 1.6 -0.6
v 0.2 1.7 -0.6
v 0.2 1.8 -0.6
v 0.2 2 -0.6
v 0.3 1.2 -0.6
v 0.3 1.4 -0.6
v 0.3 1.6 -0.6
v 0.3 1.7 -0.6
v 0.3 1.8 -0.6
v 0.3 2 -0.6
v 1 1 -0.6
v 1 1.2 -0.6
v 1 1.3 -0.6
v 1 1.5 -0.6
v 1 1.6 -0.6
v 1 1.7 -0.6
v 1 1.9 -0.6
v 1 2 -0.6
v 1.1 1 -0.6
v 1.1 1.2 -0.6
v 1.1 1.5 -0.6
v 1.1 1.7 -0.6
v 1.1 2 -0.6
v 0 1 -0.7
v 0 1.1 -0.7
v 0.1 1 -0.7
v 0.1 1.1 -0.7
v 0 1 -0.8
v 0 1.1 -0.8
v 0.1 1 -0.8
v 0.1 1.1 -0.8
v 0 0.9 -0.9
v 0 1 -0.9
v 0.1 0.9 -0.9
v 0.1 1 -0.9
v 0.1 1.1 -0.9
v 0.2 1 -0.9
v 0.2 1.1 -0.9
v 0.2 1.2 -0.9
v 0.2 1.3 -0.9
v 0.2 1.5 -0.9
v 0.2 1.6 -0.9
v 0.2 1.7 -0.9
v 0.2 1.8 -0.9
v 0.2 2 -0.9
v 0.3 1.2 -0.9
v 0.3 1.3 -0.9
v 0.3 1.4 -0.9
v 0.3 1.5 -0.9
v 0.3 1.6 -0.9
v 0.3 1.7 -0.9
v 0.3 1.8 -0.9
v 0.3 2 -0.9
v 1 1 -0.9
v 1 1.2 -0.9
v 1 1.3 -0.9
v 1 1.4 -0.9
v 1 1.5 -0.9
v 1 1.6 -0.9
v 1 1.8 -0.9
v 1 1.9 -0.9
v 1 2 -0.9
v 1.1 1 -0.9
v 1.1 1.2 -0.9
v 1.1 1.4 -0.9
v 1.1 1.8 -0.9
v 1.1 1.9 -0.9
v 1.1 2 -0.9
v 0.1 0.9 -1
v 0.1 1 -1
v 0.2 1 -1
v 0.2 1.2 -1
v 0.3 1.2 -1
v 0.3 1.3 -1
v 0.3 1.4 -1
v 0.3 1.5 -1
v 0.3 1.8 -1
v 0.3 2 -1
v 0.4 1.2 -1
v 0.4 1.3 -1
v 0.4 1.4 -1
v 0.4 1.5 -1
v 0.5 1.2 -1
v 0.5 1.3 -1
v 0.5 1.4 -1
v 0.5 1.5 -1
v 0.5 1.7 -1
v 0.5 1.8 -1
v 0.5 2 -1
v 0.6 1.2 -1
v 0.6 1.3 -1
v 0.6 1.4 -1
v 0.6 1.5 -1
v 0.6 1.7 -1
v 0.6 1.8 -1
v 0.8 1.4 -1
v 0.8 1.5 -1
v 0.8 1.7 -1
v 0.8 1.8 -1
v 0.9 1.3 -1
v 0.9 1.4 -1
v 0.9 1.5 -1
v 0.9 1.6 -1
v 0.9 1.7 -1
v 0.9 1.8 -1
v 0.9 2 -1
v 1 1 -1
v 1 1.2 -1
v 1 1.3 -1
v 1 1.4 -1
v 1 1.5 -1
v 1 1.6 -1
v 1 1.8 -1
v 1 2 -1
v 1.1 0.9 -1
v 1.1 1 -1
v 0.1 0.9 -0.5
v 1.1 0.9 -0.5
v 0 0.9 -0.6
v 0.1 0.9 -0.6
v 0 0.9 -0.9
v 0.1 0.9 -0.9
v 0.1 0.9 -1
v 1.1 0.9 -1
v 0.1 1 -0.5
v 0.2 1 -0.5
v 1 1 -0.5
v 1.1 1 -0.5
v 0 1 -0.6
v 0.1 1 -0.6
v 0.2 1 -0.6
v 1 1 -0.6
v 1.1 1 -0.6
v 0 1 -0.7
v 0.1 1 -0.7
v 0 1 -0.8
v 0.1 1 -0.8
v 0 1 -0.9
v 0.1 1 -0.9
v 0.2 1 -0.9
v 1 1 -0.9
v 1.1 1 -0.9
v 0.1 1 -1
v 0.2 1 -1
v 1 1 -1
v 1.1 1 -1
v 0.1 1.1 -0.6
v 0.2 1.1 -0.6
v 0 1.1 -0.7
v 0.1 1.1 -0.7
v 0 1.1 -0.8
v 0.1 1.1 -0.8
v 0.1 1.1 -0.9
v 0.2 1.1 -0.9
v 0.2 1.2 -0.5
v 0.3 1.2 -0.5
v 0.2 1.2 -0.6
v 0.3 1.2 -0.6
v 0.2 1.2 -0.9
v 0.3 1.2 -0.9
v 0.2 1.2 -1
v 0.3 1.2 -1
v 0.3 2 -0.5
v 0.5 2 -0.5
v 0.7 2 -0.5
v 0.9 2 -0.5
v 1 2 -0.5
v 0.2 2 -0.6
v 0.3 2 -0.6
v 0.5 2 -0.6
v 0.7 2 -0.6
v 0.9 2 -0.6
v 1 2 -0.6
v 1.1 2 -0.6
v 0.2 2 -0.7
v 0.3 2 -0.7
v 0.2 2 -0.8
v 0.3 2 -0.8
v 0.2 2 -0.9
v 0.3 2 -0.9
v 0.5 2 -0.9
v 0.9 2 -0.9
v 1 2 -0.9
v 1.1 2 -0.9
v 0.3 2 -1
v 0.5 2 -1
v 0.9 2 -1
v 1 2 -1

# faces
f 3/4/1 2/4/1 1/4/1
f 4/4/1 2/4/1 3/4/1
f 5/4/1 2/4/1 4/4/1
f 6/4/1 2/4/1 5/4/1
f 7/4/1 5/4/1 4/4/1
f 8/4/1 5/4/1 7/4/1
f 13/4/1 10/4/1 9/4/1
f 14/4/1 10/4/1 13/4/1
f 17/4/1 12/4/1 11/4/1
f 18/4/1 12/4/1 17/4/1
f 19/4/1 15/4/1 14/4/1
f 20/4/1 15/4/1 19/4/1
f 21/4/1 17/4/1 16/4/1
f 22/4/1 17/4/1 21/4/1
f 27/4/1 24/4/1 23/4/1
f 28/4/1 26/4/1 25/4/1
f 29/4/1 27/4/1 23/4/1
f 29/4/1 28/4/1 27/4/1
f 30/4/1 28/4/1 29/4/1
f 31/4/1 28/4/1 30/4/1
f 32/4/1 26/4/1 28/4/1
f 32/4/1 28/4/1 31/4/1
f 33/4/1 26/4/1 32/4/1
f 34/2/1 31/2/1 30/2/1
f 35/3/1 32/3/1 31/3/1
f 35/2/1 31/2/1 34/2/1
f 36/3/1 32/3/1 35/3/1
f 37/2/1 34/2/1 30/2/1
f 38/3/1 35/3/1 34/3/1
f 38/2/1 34/2/1 37/2/1
f 39/2/1 36/2/1 35/2/1
f 39/3/1 35/3/1 38/3/1
f 40/2/1 39/2/1 38/2/1
f 40/2/1 36/2/1 39/2/1
f 41/2/1 36/2/1 40/2/1
f 42/3/1 38/3/1 37/3/1
f 43/2/1 40/2/1 38/2/1
f 43/3/1 38/3/1 42/3/1
f 44/3/1 41/3/1 40/3/1
f 44/2/1 40/2/1 43/2/1
f 45/3/1 41/3/1 44/3/1
f 46/2/1 43/2/1 42/2/1
f 47/3/1 44/3/1 43/3/1
f 47/2/1 43/2/1 46/2/1
f 48/2/1 45/2/1 44/2/1
f 48/3/1 44/3/1 47/3/1
f 49/2/1 45/2/1 48/2/1
f 50/3/1 47/3/1 46/3/1
f 51/2/1 48/2/1 47/2/1
f 51/3/1 47/3/1 50/3/1
f 52/3/1 49/3/1 48/3/1
f 52/2/1 48/2/1 51/2/1
f 53/3/1 49/3/1 52/3/1
f 54/2/1 51/2/1 50/2/1
f 54/2/1 52/2/1 51/2/1
f 54/2/1 53/2/1 52/2/1
f 55/2/1 53/2/1 54/2/1
f 56/2/1 54/2/1 50/2/1
f 57/3/1 55/3/1 54/3/1
f 57/2/1 54/2/1 56/2/1
f 58/2/1 53/2/1 55/2/1
f 58/3/1 55/3/1 57/3/1
f 59/2/1 53/2/1 58/2/1
f 64/3/1 63/3/1 62/3/1
f 65/3/1 63/3/1 64/3/1
f 66/2/1 61/2/1 60/2/1
f 67/2/1 61/2/1 66/2/1
f 68/2/1 65/2/1 64/2/1
f 69/2/1 65/2/1 68/2/1
f 70/3/1 69/3/1 68/3/1
f 71/3/1 69/3/1 70/3/1
f 72/3/1 67/3/1 66/3/1
f 73/3/1 67/3/1 72/3/1
f 74/2/1 71/2/1 70/2/1
f 75/2/1 73/2/1 72/2/1
f 76/2/1 71/2/1 74/2/1
f 77/2/1 75/2/1 72/2/1
f 78/2/1 75/2/1 77/2/1
f 79/2/1 71/2/1 76/2/1
f 80/2/1 71/2/1 79/2/1
f 81/3/1 78/3/1 77/3/1
f 82/3/1 78/3/1 81/3/1
f 83/3/1 80/3/1 79/3/1
f 84/3/1 80/3/1 83/3/1
f 85/4/2 86/4/2 89/4/2
f 89/4/2 86/4/2 90/4/2
f 87/4/2 88/4/2 91/4/2
f 91/4/2 88/4/2 92/4/2
f 89/3/2 90/3/2 93/3/2
f 93/3/2 90/3/2 94/3/2
f 91/2/2 92/2/2 95/2/2
f 95/2/2 92/2/2 96/2/2
f 95/3/2 96/3/2 97/3/2
f 97/3/2 96/3/2 98/3/2
f 93/2/2 94/2/2 99/2/2
f 99/2/2 94/2/2 100/2/2
f 97/2/2 98/2/2 101/2/2
f 101/2/2 98/2/2 102/2/2
f 99/3/2 100/3/2 103/3/2
f 103/3/2 100/3/2 104/3/2
f 101/3/2 102/3/2 105/3/2
f 105/3/2 102/3/2 106/3/2
f 103/2/2 104/2/2 107/2/2
f 107/2/2 104/2/2 108/2/2
f 105/2/2 106/2/2 109/2/2
f 109/2/2 106/2/2 110/2/2
f 107/3/2 108/3/2 111/3/2
f 111/3/2 108/3/2 112/3/2
f 109/3/2 110/3/2 113/3/2
f 111/2/2 112/2/2 114/2/2
f 114/2/2 112/2/2 115/2/2
f 113/3/2 110/3/2 116/3/2
f 116/3/2 110/3/2 117/3/2
f 118/4/2 119/4/2 120/4/2
f 120/4/2 119/4/2 121/4/2
f 121/4/2 119/4/2 122/4/2
f 122/4/2 119/4/2 123/4/2
f 121/4/2 122/4/2 124/4/2
f 124/4/2 122/4/2 125/4/2
f 125/4/2 122/4/2 126/4/2
f 124/2/2 125/2/2 127/2/2
f 125/3/2 126/3/2 128/3/2
f 127/2/2 125/2/2 128/2/2
f 128/3/2 126/3/2 129/3/2
f 124/2/2 127/2/2 130/2/2
f 127/3/2 128/3/2 131/3/2
f 130/2/2 127/2/2 131/2/2
f 128/2/2 129/2/2 132/2/2
f 131/3/2 128/3/2 132/3/2
f 130/3/2 131/3/2 133/3/2
f 131/2/2 132/2/2 134/2/2
f 133/3/2 131/3/2 134/3/2
f 132/2/2 129/2/2 135/2/2
f 134/2/2 132/2/2 135/2/2
f 133/2/2 134/2/2 136/2/2
f 134/3/2 135/3/2 136/3/2
f 135/2/2 129/2/2 137/2/2
f 136/3/2 135/3/2 137/3/2
f 137/2/2 129/2/2 138/2/2
f 136/2/2 137/2/2 139/2/2
f 137/3/2 138/3/2 139/3/2
f 139/3/2 138/3/2 140/3/2
f 133/2/2 136/2/2 141/2/2
f 136/2/2 139/2/2 141/2/2
f 139/2/2 140/2/2 141/2/2
f 141/2/2 140/2/2 142/2/2
f 145/4/3 144/4/3 143/4/3
f 147/4/3 146/4/3 145/4/3
f 152/2/3 148/2/3 147/2/3
f 153/3/3 149/3/3 148/3/3
f 153/2/3 148/2/3 152/2/3
f 154/2/3 150/2/3 149/2/3
f 154/3/3 149/3/3 153/3/3
f 155/3/3 151/3/3 150/3/3
f 155/2/3 150/2/3 154/2/3
f 156/3/3 151/3/3 155/3/3
f 157/4/3 147/4/3 145/4/3
f 157/2/3 152/2/3 147/2/3
f 158/3/3 153/3/3 152/3/3
f 158/2/3 152/2/3 157/2/3
f 159/2/3 154/2/3 153/2/3
f 159/3/3 153/3/3 158/3/3
f 160/3/3 151/3/3 156/3/3
f 160/2/3 156/2/3 155/2/3
f 161/3/3 151/3/3 160/3/3
f 162/2/3 154/2/3 159/2/3
f 162/2/3 159/2/3 158/2/3
f 163/3/3 155/3/3 154/3/3
f 163/2/3 154/2/3 162/2/3
f 164/2/3 161/2/3 160/2/3
f 164/3/3 155/3/3 163/3/3
f 164/2/3 160/2/3 155/2/3
f 165/2/3 161/2/3 164/2/3
f 166/3/3 158/3/3 157/3/3
f 166/4/3 157/4/3 145/4/3
f 167/2/3 162/2/3 158/2/3
f 167/3/3 158/3/3 166/3/3
f 168/3/3 163/3/3 162/3/3
f 168/2/3 162/2/3 167/2/3
f 169/2/3 164/2/3 163/2/3
f 169/3/3 163/3/3 168/3/3
f 170/3/3 165/3/3 164/3/3
f 170/2/3 164/2/3 169/2/3
f 171/2/3 161/2/3 165/2/3
f 171/3/3 165/3/3 170/3/3
f 172/2/3 161/2/3 171/2/3
f 173/2/3 167/2/3 166/2/3
f 173/4/3 166/4/3 145/4/3
f 174/3/3 168/3/3 167/3/3
f 174/2/3 167/2/3 173/2/3
f 175/2/3 170/2/3 169/2/3
f 175/3/3 168/3/3 174/3/3
f 175/2/3 169/2/3 168/2/3
f 175/2/3 171/2/3 170/2/3
f 176/2/3 171/2/3 175/2/3
f 177/2/3 171/2/3 176/2/3
f 178/3/3 172/3/3 171/3/3
f 178/2/3 171/2/3 177/2/3
f 179/3/3 172/3/3 178/3/3
f 180/4/3 145/4/3 143/4/3
f 180/4/3 173/4/3 145/4/3
f 181/3/3 174/3/3 173/3/3
f 181/4/3 173/4/3 180/4/3
f 182/2/3 175/2/3 174/2/3
f 182/3/3 174/3/3 181/3/3
f 183/3/3 176/3/3 175/3/3
f 183/2/3 175/2/3 182/2/3
f 184/2/3 177/2/3 176/2/3
f 184/3/3 176/3/3 183/3/3
f 185/3/3 178/3/3 177/3/3
f 185/2/3 177/2/3 184/2/3
f 186/2/3 179/2/3 178/2/3
f 186/3/3 178/3/3 185/3/3
f 187/2/3 179/2/3 186/2/3
f 188/4/3 180/4/3 143/4/3
f 189/4/3 180/4/3 188/4/3
f 192/4/3 191/4/3 190/4/3
f 193/4/3 191/4/3 192/4/3
f 195/4/3 194/4/3 193/4/3
f 196/4/3 194/4/3 195/4/3
f 203/2/3 198/2/3 197/2/3
f 204/3/3 199/3/3 198/3/3
f 204/2/3 198/2/3 203/2/3
f 205/2/3 200/2/3 199/2/3
f 205/3/3 199/3/3 204/3/3
f 206/3/3 201/3/3 200/3/3
f 206/2/3 200/2/3 205/2/3
f 207/2/3 202/2/3 201/2/3
f 207/3/3 201/3/3 206/3/3
f 208/2/3 202/2/3 207/2/3
f 217/4/3 210/4/3 209/4/3
f 218/2/3 211/2/3 210/2/3
f 218/4/3 210/4/3 217/4/3
f 218/2/3 212/2/3 211/2/3
f 219/3/3 213/3/3 212/3/3
f 219/2/3 212/2/3 218/2/3
f 219/3/3 214/3/3 213/3/3
f 220/2/3 216/2/3 215/2/3
f 220/3/3 214/3/3 219/3/3
f 220/2/3 215/2/3 214/2/3
f 221/2/3 216/2/3 220/2/3
f 224/4/3 223/4/3 222/4/3
f 225/4/3 223/4/3 224/4/3
f 226/4/4 227/4/4 228/4/4
f 228/4/4 227/4/4 229/4/4
f 230/4/4 231/4/4 232/4/4
f 232/4/4 231/4/4 233/4/4
f 233/4/4 234/4/4 235/4/4
f 235/4/4 234/4/4 236/4/4
f 237/3/4 238/3/4 244/3/4
f 238/2/4 239/2/4 245/2/4
f 244/3/4 238/3/4 245/3/4
f 245/2/4 239/2/4 246/2/4
f 239/3/4 240/3/4 247/3/4
f 246/2/4 239/2/4 247/2/4
f 240/2/4 241/2/4 248/2/4
f 247/3/4 240/3/4 248/3/4
f 241/3/4 242/3/4 249/3/4
f 248/2/4 241/2/4 249/2/4
f 242/2/4 243/2/4 250/2/4
f 249/3/4 242/3/4 250/3/4
f 250/2/4 243/2/4 251/2/4
f 252/4/4 253/4/4 261/4/4
f 253/3/4 254/3/4 262/3/4
f 261/4/4 253/4/4 262/4/4
f 254/3/4 255/3/4 262/3/4
f 255/2/4 256/2/4 263/2/4
f 262/3/4 255/3/4 263/3/4
f 256/2/4 257/2/4 263/2/4
f 257/2/4 258/2/4 263/2/4
f 258/3/4 259/3/4 264/3/4
f 263/2/4 258/2/4 264/2/4
f 259/2/4 260/2/4 265/2/4
f 264/3/4 259/3/4 265/3/4
f 265/2/4 260/2/4 266/2/4
f 267/4/4 268/4/4 269/4/4
f 269/4/4 270/4/4 271/4/4
f 269/4/4 271/4/4 277/4/4
f 271/3/4 272/3/4 277/3/4
f 272/2/4 273/2/4 278/2/4
f 277/3/4 272/3/4 278/3/4
f 273/3/4 274/3/4 279/3/4
f 278/2/4 273/2/4 279/2/4
f 274/2/4 275/2/4 280/2/4
f 279/3/4 274/3/4 280/3/4
f 269/4/4 277/4/4 281/4/4
f 277/2/4 278/2/4 281/2/4
f 278/3/4 279/3/4 282/3/4
f 281/2/4 278/2/4 282/2/4
f 279/2/4 280/2/4 283/2/4
f 282/3/4 279/3/4 283/3/4
f 280/2/4 275/2/4 284/2/4
f 283/2/4 280/2/4 284/2/4
f 284/2/4 275/2/4 285/2/4
f 275/3/4 276/3/4 286/3/4
f 285/2/4 275/2/4 286/2/4
f 286/3/4 276/3/4 287/3/4
f 269/4/4 281/4/4 288/4/4
f 281/3/4 282/3/4 288/3/4
f 282/2/4 283/2/4 289/2/4
f 288/3/4 282/3/4 289/3/4
f 283/3/4 284/3/4 290/3/4
f 289/2/4 283/2/4 290/2/4
f 284/2/4 285/2/4 291/2/4
f 290/3/4 284/3/4 291/3/4
f 285/3/4 286/3/4 292/3/4
f 291/2/4 285/2/4 292/2/4
f 286/2/4 287/2/4 293/2/4
f 292/3/4 286/3/4 293/3/4
f 289/2/4 290/2/4 294/2/4
f 288/2/4 289/2/4 294/2/4
f 290/2/4 291/2/4 294/2/4
f 291/3/4 292/3/4 295/3/4
f 294/2/4 291/2/4 295/2/4
f 292/2/4 293/2/4 296/2/4
f 295/3/4 292/3/4 296/3/4
f 293/2/4 287/2/4 297/2/4
f 296/2/4 293/2/4 297/2/4
f 288/2/4 294/2/4 298/2/4
f 294/3/4 295/3/4 299/3/4
f 298/2/4 294/2/4 299/2/4
f 295/2/4 296/2/4 300/2/4
f 299/3/4 295/3/4 300/3/4
f 300/2/4 296/2/4 301/2/4
f 296/3/4 297/3/4 302/3/4
f 301/2/4 296/2/4 302/2/4
f 297/2/4 287/2/4 303/2/4
f 302/3/4 297/3/4 303/3/4
f 303/2/4 287/2/4 304/2/4
f 267/4/4 269/4/4 305/4/4
f 269/4/4 288/4/4 305/4/4
f 288/2/4 298/2/4 306/2/4
f 305/4/4 288/4/4 306/4/4
f 298/3/4 299/3/4 307/3/4
f 306/2/4 298/2/4 307/2/4
f 299/2/4 300/2/4 308/2/4
f 307/3/4 299/3/4 308/3/4
f 300/3/4 301/3/4 309/3/4
f 308/2/4 300/2/4 309/2/4
f 301/2/4 302/2/4 310/2/4
f 309/3/4 301/3/4 310/3/4
f 302/2/4 303/2/4 310/2/4
f 303/3/4 304/3/4 311/3/4
f 310/2/4 303/2/4 311/2/4
f 311/3/4 304/3/4 312/3/4
f 267/4/4 305/4/4 313/4/4
f 313/4/4 305/4/4 314/4/4
f 318/4/5 316/4/5 315/4/5
f 319/4/5 318/4/5 317/4/5
f 320/4/5 316/4/5 318/4/5
f 320/4/5 318/4/5 319/4/5
f 321/4/5 316/4/5 320/4/5
f 322/4/5 316/4/5 321/4/5
f 323/4/6 324/4/6 328/4/6
f 328/4/6 324/4/6 329/4/6
f 325/4/6 326/4/6 330/4/6
f 330/4/6 326/4/6 331/4/6
f 327/4/6 328/4/6 332/4/6
f 332/4/6 328/4/6 333/4/6
f 334/4/6 335/4/6 336/4/6
f 336/4/6 335/4/6 337/4/6
f 337/4/6 338/4/6 341/4/6
f 341/4/6 338/4/6 342/4/6
f 339/4/6 340/4/6 343/4/6
f 343/4/6 340/4/6 344/4/6
f 345/4/6 346/4/6 348/4/6
f 347/4/6 348/4/6 349/4/6
f 348/4/6 346/4/6 350/4/6
f 349/4/6 348/4/6 350/4/6
f 350/4/6 346/4/6 351/4/6
f 351/4/6 346/4/6 352/4/6
f 353/4/6 354/4/6 355/4/6
f 355/4/6 354/4/6 356/4/6
f 357/4/6 358/4/6 359/4/6
f 359/4/6 358/4/6 360/4/6
f 361/3/6 362/3/6 367/3/6
f 362/2/6 363/2/6 368/2/6
f 367/3/6 362/3/6 368/3/6
f 363/3/6 364/3/6 369/3/6
f 368/2/6 363/2/6 369/2/6
f 364/2/6 365/2/6 370/2/6
f 369/3/6 364/3/6 370/3/6
f 370/2/6 365/2/6 371/2/6
f 366/2/6 367/2/6 373/2/6
f 368/1/6 369/1/6 374/1/6
f 373/2/6 367/2/6 374/2/6
f 367/1/6 368/1/6 374/1/6
f 370/1/6 371/1/6 374/1/6
f 369/1/6 370/1/6 374/1/6
f 373/3/6 374/3/6 375/3/6
f 374/1/6 371/1/6 376/1/6
f 375/3/6 374/3/6 376/3/6
f 375/2/6 376/2/6 377/2/6
f 376/1/6 371/1/6 378/1/6
f 377/2/6 376/2/6 378/2/6
f 378/1/6 371/1/6 379/1/6
f 379/1/6 371/1/6 380/1/6
f 371/2/6 372/2/6 381/2/6
f 380/1/6 371/1/6 381/1/6
f 381/2/6 372/2/6 382/2/6
f 378/3/6 379/3/6 383/3/6
f 379/2/6 380/2/6 384/2/6
f 383/3/6 379/3/6 384/3/6
f 380/3/6 381/3/6 385/3/6
f 384/2/6 380/2/6 385/2/6
f 385/3/6 381/3/6 386/3/6
