# MagicaVoxel @ Ephtracy

# group
o 

# material
mtllib Player-0.mtl
usemtl palette

# normals
vn -1 0 0
vn 1 0 0
vn 0 0 1
vn 0 0 -1
vn 0 -1 0
vn 0 1 0

# texcoords
vt 0.0683594 0.5
vt 0.162109 0.5
vt 0.306641 0.5
vt 0.333984 0.5
vt 0.369141 0.5
vt 0.447266 0.5
vt 0.509766 0.5
vt 0.537109 0.5
vt 0.677734 0.5
vt 0.873047 0.5

# verts
v 0 0.7 -0.6
v 0 0.7 -0.8
v 0 0.8 -0.5
v 0 0.8 -0.6
v 0 0.8 -0.8
v 0 0.8 -0.9
v 0 0.9 -0.4
v 0 0.9 -0.5
v 0 0.9 -0.9
v 0 0.9 -1
v 0 1 -0.4
v 0 1 -1
v 0 1.1 0.1
v 0 1.1 -1.5
v 0 1.2 0
v 0 1.2 -0.2
v 0 1.2 -0.6
v 0 1.2 -0.8
v 0 1.2 -1.2
v 0 1.2 -1.4
v 0 1.3 -0.6
v 0 1.3 -0.8
v 0 1.4 -0.6
v 0 1.4 -0.8
v 0 1.5 0
v 0 1.5 -0.2
v 0 1.5 -0.6
v 0 1.5 -0.8
v 0 1.5 -1.2
v 0 1.5 -1.4
v 0 1.6 -0.6
v 0 1.6 -0.8
v 0 1.8 -0.5
v 0 1.8 -0.6
v 0 1.8 -0.8
v 0 1.8 -0.9
v 0 1.9 0.1
v 0 1.9 0
v 0 1.9 -0.3
v 0 1.9 -0.5
v 0 1.9 -0.9
v 0 1.9 -1
v 0 1.9 -1.4
v 0 1.9 -1.5
v 0 2 0
v 0 2 -0.3
v 0 2 -1
v 0 2 -1.4
v 0.1 0.7 0.1
v 0.1 0.7 -0.6
v 0.1 0.7 -0.8
v 0.1 0.7 -1.5
v 0.1 0.8 -0.5
v 0.1 0.8 -0.6
v 0.1 0.8 -0.8
v 0.1 0.8 -0.9
v 0.1 0.9 -0.4
v 0.1 0.9 -0.5
v 0.1 0.9 -0.9
v 0.1 0.9 -1
v 0.1 1 0.1
v 0.1 1 -0.4
v 0.1 1 -1
v 0.1 1 -1.5
v 0.1 1.1 0.1
v 0.1 1.1 -1.5
v 0.1 1.6 -0.6
v 0.1 1.6 -0.8
v 0.1 1.8 -0.5
v 0.1 1.8 -0.6
v 0.1 1.8 -0.8
v 0.1 1.8 -0.9
v 0.1 1.9 0.1
v 0.1 1.9 0
v 0.1 1.9 -0.3
v 0.1 1.9 -0.5
v 0.1 1.9 -0.9
v 0.1 1.9 -1
v 0.1 1.9 -1.4
v 0.1 1.9 -1.5
v 0.1 2 0.1
v 0.1 2 0
v 0.1 2 -0.1
v 0.1 2 -0.3
v 0.1 2 -1
v 0.1 2 -1.3
v 0.1 2 -1.4
v 0.1 2 -1.5
v 0.1 2.1 0
v 0.1 2.1 -0.1
v 0.1 2.1 -1.3
v 0.1 2.1 -1.4
v 0.1 2.2 -0.1
v 0.1 2.2 -1.3
v 1 0.7 0.1
v 1 0.7 0
v 1 0.7 -1.4
v 1 0.7 -1.5
v 1 1 0.1
v 1 1 0
v 1 1 -1.4
v 1 1 -1.5
v 1 1.1 0.1
v 1 1.1 0
v 1 1.1 -1.4
v 1 1.1 -1.5
v 1 2 0.1
v 1 2 0
v 1 2 -0.1
v 1 2 -1.3
v 1 2 -1.4
v 1 2 -1.5
v 1 2.1 0
v 1 2.1 -0.1
v 1 2.1 -0.2
v 1 2.1 -1.2
v 1 2.1 -1.3
v 1 2.1 -1.4
v 1 2.2 -0.1
v 1 2.2 -0.2
v 1 2.2 -1.2
v 1 2.2 -1.3
v 1.1 0.7 0
v 1.1 0.7 -0.3
v 1.1 0.7 -0.4
v 1.1 0.7 -1
v 1.1 0.7 -1.1
v 1.1 0.7 -1.4
v 1.1 1 0
v 1.1 1 -0.3
v 1.1 1 -0.4
v 1.1 1 -1
v 1.1 1 -1.1
v 1.1 1 -1.4
v 1.1 1.1 0
v 1.1 1.1 -1.4
v 1.1 1.2 -0.2
v 1.1 1.2 -0.3
v 1.1 1.2 -0.4
v 1.1 1.2 -0.5
v 1.1 1.2 -0.6
v 1.1 1.2 -0.7
v 1.1 1.2 -0.8
v 1.1 1.2 -0.9
v 1.1 1.2 -1
v 1.1 1.2 -1.1
v 1.1 1.2 -1.2
v 1.1 1.2 -1.3
v 1.1 1.3 -0.1
v 1.1 1.3 -0.2
v 1.1 1.3 -0.3
v 1.1 1.3 -0.4
v 1.1 1.3 -0.5
v 1.1 1.3 -0.6
v 1.1 1.3 -0.7
v 1.1 1.3 -0.8
v 1.1 1.3 -0.9
v 1.1 1.3 -1
v 1.1 1.3 -1.1
v 1.1 1.3 -1.2
v 1.1 1.3 -1.3
v 1.1 1.4 -0.1
v 1.1 1.4 -0.2
v 1.1 1.4 -0.3
v 1.1 1.4 -0.4
v 1.1 1.4 -0.5
v 1.1 1.4 -0.6
v 1.1 1.4 -0.7
v 1.1 1.4 -0.8
v 1.1 1.4 -0.9
v 1.1 1.4 -1
v 1.1 1.4 -1.1
v 1.1 1.4 -1.2
v 1.1 1.4 -1.3
v 1.1 1.5 -0.1
v 1.1 1.5 -0.2
v 1.1 1.5 -0.3
v 1.1 1.5 -0.4
v 1.1 1.5 -0.5
v 1.1 1.5 -0.6
v 1.1 1.5 -0.7
v 1.1 1.5 -0.8
v 1.1 1.5 -0.9
v 1.1 1.5 -1
v 1.1 1.5 -1.1
v 1.1 1.5 -1.2
v 1.1 1.5 -1.3
v 1.1 1.6 -0.1
v 1.1 1.6 -0.2
v 1.1 1.6 -0.3
v 1.1 1.6 -0.4
v 1.1 1.6 -0.5
v 1.1 1.6 -0.6
v 1.1 1.6 -0.7
v 1.1 1.6 -0.8
v 1.1 1.6 -0.9
v 1.1 1.6 -1
v 1.1 1.6 -1.1
v 1.1 1.6 -1.2
v 1.1 1.6 -1.3
v 1.1 1.7 -0.2
v 1.1 1.7 -0.3
v 1.1 1.7 -0.4
v 1.1 1.7 -0.5
v 1.1 1.7 -0.6
v 1.1 1.7 -0.7
v 1.1 1.7 -0.8
v 1.1 1.7 -0.9
v 1.1 1.7 -1
v 1.1 1.7 -1.1
v 1.1 1.7 -1.2
v 1.1 1.7 -1.3
v 1.1 2 0
v 1.1 2 -0.1
v 1.1 2 -0.4
v 1.1 2 -1
v 1.1 2 -1.3
v 1.1 2 -1.4
v 1.1 2.1 -0.1
v 1.1 2.1 -0.2
v 1.1 2.1 -0.4
v 1.1 2.1 -1
v 1.1 2.1 -1.2
v 1.1 2.1 -1.3
v 1.1 2.2 -0.2
v 1.1 2.2 -1.2
v 0 1.1 0.1
v 0 1.9 0.1
v 0.1 0.7 0.1
v 0.1 1 0.1
v 0.1 1.1 0.1
v 0.1 1.9 0.1
v 0.1 2 0.1
v 0.3 1.6 0.1
v 0.3 1.7 0.1
v 0.4 1.5 0.1
v 0.4 1.6 0.1
v 0.5 1.5 0.1
v 0.5 1.6 0.1
v 0.6 1.6 0.1
v 0.6 1.7 0.1
v 1 0.7 0.1
v 1 1 0.1
v 1 1.1 0.1
v 1 2 0.1
v 0 1.9 0
v 0 2 0
v 0.1 1.9 0
v 0.1 2 0
v 0.1 2.1 0
v 0.2 2 0
v 0.2 2.1 0
v 1 0.7 0
v 1 1 0
v 1 1.1 0
v 1 2 0
v 1 2.1 0
v 1.1 0.7 0
v 1.1 1 0
v 1.1 1.1 0
v 1.1 2 0
v 0.1 2.1 -0.1
v 0.1 2.2 -0.1
v 0.2 2.1 -0.1
v 1 2 -0.1
v 1 2.1 -0.1
v 1 2.2 -0.1
v 1.1 2 -0.1
v 1.1 2.1 -0.1
v 1 2.1 -0.2
v 1 2.2 -0.2
v 1.1 2.1 -0.2
v 1.1 2.2 -0.2
v 0 0.9 -0.4
v 0 1 -0.4
v 0.1 0.9 -0.4
v 0.1 1 -0.4
v 0 0.8 -0.5
v 0 0.9 -0.5
v 0.1 0.8 -0.5
v 0.1 0.9 -0.5
v 0 0.7 -0.6
v 0 0.8 -0.6
v 0.1 0.7 -0.6
v 0.1 0.8 -0.6
v 0 1.6 -0.8
v 0 1.8 -0.8
v 0.1 1.6 -0.8
v 0.1 1.8 -0.8
v 0 1.8 -0.9
v 0 1.9 -0.9
v 0.1 1.8 -0.9
v 0.1 1.9 -0.9
v 0 1.9 -1
v 0 2 -1
v 0.1 1.9 -1
v 0.1 2 -1
v 0 1.9 -0.3
v 0 2 -0.3
v 0.1 1.9 -0.3
v 0.1 2 -0.3
v 0 1.8 -0.5
v 0 1.9 -0.5
v 0.1 1.8 -0.5
v 0.1 1.9 -0.5
v 0 1.6 -0.6
v 0 1.8 -0.6
v 0.1 1.6 -0.6
v 0.1 1.8 -0.6
v 0 0.7 -0.8
v 0 0.8 -0.8
v 0.1 0.7 -0.8
v 0.1 0.8 -0.8
v 0 0.8 -0.9
v 0 0.9 -0.9
v 0.1 0.8 -0.9
v 0.1 0.9 -0.9
v 0 0.9 -1
v 0 1 -1
v 0.1 0.9 -1
v 0.1 1 -1
v 1 2.1 -1.2
v 1 2.2 -1.2
v 1.1 2.1 -1.2
v 1.1 2.2 -1.2
v 0.1 2.1 -1.3
v 0.1 2.2 -1.3
v 0.2 2.1 -1.3
v 1 2 -1.3
v 1 2.1 -1.3
v 1 2.2 -1.3
v 1.1 2 -1.3
v 1.1 2.1 -1.3
v 0 1.9 -1.4
v 0 2 -1.4
v 0.1 1.9 -1.4
v 0.1 2 -1.4
v 0.1 2.1 -1.4
v 0.2 2 -1.4
v 0.2 2.1 -1.4
v 1 0.7 -1.4
v 1 1 -1.4
v 1 1.1 -1.4
v 1 2 -1.4
v 1 2.1 -1.4
v 1.1 0.7 -1.4
v 1.1 1 -1.4
v 1.1 1.1 -1.4
v 1.1 2 -1.4
v 0 1.1 -1.5
v 0 1.9 -1.5
v 0.1 0.7 -1.5
v 0.1 1 -1.5
v 0.1 1.1 -1.5
v 0.1 1.9 -1.5
v 0.1 2 -1.5
v 0.3 1.6 -1.5
v 0.3 1.7 -1.5
v 0.4 1.5 -1.5
v 0.4 1.6 -1.5
v 0.5 1.5 -1.5
v 0.5 1.6 -1.5
v 0.6 1.6 -1.5
v 0.6 1.7 -1.5
v 1 0.7 -1.5
v 1 1 -1.5
v 1 1.1 -1.5
v 1 2 -1.5
v 0.1 0.7 0.1
v 1 0.7 0.1
v 0.2 0.7 0
v 1 0.7 0
v 1.1 0.7 0
v 1 0.7 -0.3
v 1.1 0.7 -0.3
v 1 0.7 -0.4
v 1.1 0.7 -0.4
v 0 0.7 -0.6
v 0.1 0.7 -0.6
v 0 0.7 -0.8
v 0.1 0.7 -0.8
v 1 0.7 -1
v 1.1 0.7 -1
v 1 0.7 -1.1
v 1.1 0.7 -1.1
v 0.2 0.7 -1.4
v 1 0.7 -1.4
v 1.1 0.7 -1.4
v 0.1 0.7 -1.5
v 1 0.7 -1.5
v 0 0.8 -0.5
v 0.1 0.8 -0.5
v 0 0.8 -0.6
v 0.1 0.8 -0.6
v 0 0.8 -0.8
v 0.1 0.8 -0.8
v 0 0.8 -0.9
v 0.1 0.8 -0.9
v 0 0.9 -0.4
v 0.1 0.9 -0.4
v 0 0.9 -0.5
v 0.1 0.9 -0.5
v 0 0.9 -0.9
v 0.1 0.9 -0.9
v 0 0.9 -1
v 0.1 0.9 -1
v 0 1.1 0.1
v 0.1 1.1 0.1
v 0 1.1 -1.5
v 0.1 1.1 -1.5
v 0 1 -0.4
v 0.1 1 -0.4
v 0 1 -1
v 0.1 1 -1
v 0 1.6 -0.6
v 0.1 1.6 -0.6
v 0 1.6 -0.8
v 0.1 1.6 -0.8
v 0 1.8 -0.5
v 0.1 1.8 -0.5
v 0 1.8 -0.6
v 0.1 1.8 -0.6
v 0 1.8 -0.8
v 0.1 1.8 -0.8
v 0 1.8 -0.9
v 0.1 1.8 -0.9
v 0 1.9 0.1
v 0.1 1.9 0.1
v 0 1.9 0
v 0.1 1.9 0
v 0 1.9 -0.3
v 0.1 1.9 -0.3
v 0 1.9 -0.5
v 0.1 1.9 -0.5
v 0 1.9 -0.9
v 0.1 1.9 -0.9
v 0 1.9 -1
v 0.1 1.9 -1
v 0 1.9 -1.4
v 0.1 1.9 -1.4
v 0 1.9 -1.5
v 0.1 1.9 -1.5
v 0.1 2 0.1
v 1 2 0.1
v 0 2 0
v 0.1 2 0
v 0.2 2 0
v 1 2 0
v 1.1 2 0
v 0.1 2 -0.1
v 1 2 -0.1
v 1.1 2 -0.1
v 0 2 -0.3
v 0.1 2 -0.3
v 0 2 -1
v 0.1 2 -1
v 0.1 2 -1.3
v 1 2 -1.3
v 1.1 2 -1.3
v 0 2 -1.4
v 0.1 2 -1.4
v 0.2 2 -1.4
v 1 2 -1.4
v 1.1 2 -1.4
v 0.1 2 -1.5
v 1 2 -1.5
v 0.1 2.1 0
v 0.2 2.1 0
v 1 2.1 0
v 0.1 2.1 -0.1
v 0.2 2.1 -0.1
v 1 2.1 -0.1
v 1.1 2.1 -0.1
v 1 2.1 -0.2
v 1.1 2.1 -0.2
v 1 2.1 -1.2
v 1.1 2.1 -1.2
v 0.1 2.1 -1.3
v 0.2 2.1 -1.3
v 1 2.1 -1.3
v 1.1 2.1 -1.3
v 0.1 2.1 -1.4
v 0.2 2.1 -1.4
v 1 2.1 -1.4
v 0.1 2.2 -0.1
v 1 2.2 -0.1
v 1 2.2 -0.2
v 1.1 2.2 -0.2
v 1 2.2 -1.2
v 1.1 2.2 -1.2
v 0.1 2.2 -1.3
v 1 2.2 -1.3

# faces
f 4/8/1 2/8/1 1/8/1
f 5/8/1 2/8/1 4/8/1
f 8/8/1 4/8/1 3/8/1
f 8/8/1 6/8/1 5/8/1
f 8/8/1 5/8/1 4/8/1
f 9/8/1 6/8/1 8/8/1
f 11/8/1 8/8/1 7/8/1
f 11/8/1 10/8/1 9/8/1
f 11/8/1 9/8/1 8/8/1
f 12/8/1 10/8/1 11/8/1
f 15/9/1 14/9/1 13/9/1
f 16/9/1 14/9/1 15/9/1
f 17/9/1 14/9/1 16/9/1
f 18/9/1 14/9/1 17/9/1
f 19/9/1 14/9/1 18/9/1
f 20/9/1 14/9/1 19/9/1
f 21/9/1 17/9/1 16/9/1
f 21/2/1 18/2/1 17/2/1
f 22/9/1 19/9/1 18/9/1
f 22/2/1 18/2/1 21/2/1
f 23/9/1 21/9/1 16/9/1
f 23/9/1 22/9/1 21/9/1
f 24/9/1 19/9/1 22/9/1
f 24/9/1 22/9/1 23/9/1
f 25/9/1 15/9/1 13/9/1
f 25/7/1 16/7/1 15/7/1
f 26/9/1 23/9/1 16/9/1
f 26/7/1 16/7/1 25/7/1
f 27/2/1 24/2/1 23/2/1
f 27/9/1 23/9/1 26/9/1
f 28/9/1 19/9/1 24/9/1
f 28/2/1 24/2/1 27/2/1
f 29/7/1 20/7/1 19/7/1
f 29/9/1 19/9/1 28/9/1
f 30/9/1 14/9/1 20/9/1
f 30/7/1 20/7/1 29/7/1
f 31/9/1 27/9/1 26/9/1
f 31/9/1 26/9/1 25/9/1
f 31/9/1 30/9/1 29/9/1
f 31/9/1 29/9/1 28/9/1
f 31/9/1 28/9/1 27/9/1
f 32/9/1 30/9/1 31/9/1
f 33/9/1 31/9/1 25/9/1
f 34/9/1 31/9/1 33/9/1
f 35/9/1 30/9/1 32/9/1
f 36/9/1 30/9/1 35/9/1
f 37/9/1 25/9/1 13/9/1
f 37/9/1 33/9/1 25/9/1
f 38/9/1 33/9/1 37/9/1
f 39/9/1 33/9/1 38/9/1
f 40/9/1 33/9/1 39/9/1
f 41/9/1 30/9/1 36/9/1
f 42/9/1 30/9/1 41/9/1
f 43/9/1 14/9/1 30/9/1
f 43/9/1 30/9/1 42/9/1
f 44/9/1 14/9/1 43/9/1
f 45/9/1 39/9/1 38/9/1
f 46/9/1 39/9/1 45/9/1
f 47/9/1 43/9/1 42/9/1
f 48/9/1 43/9/1 47/9/1
f 53/10/1 50/10/1 49/10/1
f 54/10/1 50/10/1 53/10/1
f 55/10/1 52/10/1 51/10/1
f 56/10/1 52/10/1 55/10/1
f 57/10/1 53/10/1 49/10/1
f 58/10/1 53/10/1 57/10/1
f 59/10/1 52/10/1 56/10/1
f 60/10/1 52/10/1 59/10/1
f 61/10/1 57/10/1 49/10/1
f 62/10/1 57/10/1 61/10/1
f 63/10/1 52/10/1 60/10/1
f 64/10/1 52/10/1 63/10/1
f 65/4/1 62/4/1 61/4/1
f 65/4/1 63/4/1 62/4/1
f 65/4/1 64/4/1 63/4/1
f 66/4/1 64/4/1 65/4/1
f 70/4/1 68/4/1 67/4/1
f 71/4/1 68/4/1 70/4/1
f 76/4/1 70/4/1 69/4/1
f 76/4/1 71/4/1 70/4/1
f 76/4/1 72/4/1 71/4/1
f 77/4/1 72/4/1 76/4/1
f 81/9/1 74/9/1 73/9/1
f 82/9/1 74/9/1 81/9/1
f 84/4/1 76/4/1 75/4/1
f 84/4/1 77/4/1 76/4/1
f 84/4/1 78/4/1 77/4/1
f 85/4/1 78/4/1 84/4/1
f 87/9/1 80/9/1 79/9/1
f 88/9/1 80/9/1 87/9/1
f 89/9/1 83/9/1 82/9/1
f 90/4/1 86/4/1 85/4/1
f 90/9/1 83/9/1 89/9/1
f 90/4/1 84/4/1 83/4/1
f 90/4/1 85/4/1 84/4/1
f 91/9/1 87/9/1 86/9/1
f 91/4/1 86/4/1 90/4/1
f 92/9/1 87/9/1 91/9/1
f 93/4/1 91/4/1 90/4/1
f 94/4/1 91/4/1 93/4/1
f 95/10/2 96/10/2 99/10/2
f 99/10/2 96/10/2 100/10/2
f 97/10/2 98/10/2 101/10/2
f 101/10/2 98/10/2 102/10/2
f 99/4/2 100/4/2 103/4/2
f 103/4/2 100/4/2 104/4/2
f 101/4/2 102/4/2 105/4/2
f 105/4/2 102/4/2 106/4/2
f 103/9/2 104/9/2 107/9/2
f 107/9/2 104/9/2 108/9/2
f 105/9/2 106/9/2 111/9/2
f 111/9/2 106/9/2 112/9/2
f 108/4/2 109/4/2 113/4/2
f 113/4/2 109/4/2 114/4/2
f 110/4/2 111/4/2 117/4/2
f 117/4/2 111/4/2 118/4/2
f 114/4/2 115/4/2 119/4/2
f 119/4/2 115/4/2 120/4/2
f 116/4/2 117/4/2 121/4/2
f 121/4/2 117/4/2 122/4/2
f 123/10/2 124/10/2 129/10/2
f 124/1/2 125/1/2 130/1/2
f 129/10/2 124/10/2 130/10/2
f 125/10/2 126/10/2 131/10/2
f 130/1/2 125/1/2 131/1/2
f 126/1/2 127/1/2 132/1/2
f 131/10/2 126/10/2 132/10/2
f 127/10/2 128/10/2 133/10/2
f 132/1/2 127/1/2 133/1/2
f 133/10/2 128/10/2 134/10/2
f 131/4/2 132/4/2 135/4/2
f 129/4/2 130/4/2 135/4/2
f 133/4/2 134/4/2 135/4/2
f 132/4/2 133/4/2 135/4/2
f 130/4/2 131/4/2 135/4/2
f 135/4/2 134/4/2 136/4/2
f 135/9/2 136/9/2 137/9/2
f 137/9/2 136/9/2 138/9/2
f 138/9/2 136/9/2 139/9/2
f 139/9/2 136/9/2 140/9/2
f 140/9/2 136/9/2 141/9/2
f 141/9/2 136/9/2 142/9/2
f 142/9/2 136/9/2 143/9/2
f 143/9/2 136/9/2 144/9/2
f 144/9/2 136/9/2 145/9/2
f 145/9/2 136/9/2 146/9/2
f 146/9/2 136/9/2 147/9/2
f 147/9/2 136/9/2 148/9/2
f 135/9/2 137/9/2 149/9/2
f 137/5/2 138/5/2 150/5/2
f 149/9/2 137/9/2 150/9/2
f 138/9/2 139/9/2 151/9/2
f 150/5/2 138/5/2 151/5/2
f 139/5/2 140/5/2 152/5/2
f 151/9/2 139/9/2 152/9/2
f 140/9/2 141/9/2 153/9/2
f 152/5/2 140/5/2 153/5/2
f 141/5/2 142/5/2 154/5/2
f 153/9/2 141/9/2 154/9/2
f 142/9/2 143/9/2 155/9/2
f 154/5/2 142/5/2 155/5/2
f 143/5/2 144/5/2 156/5/2
f 155/9/2 143/9/2 156/9/2
f 144/9/2 145/9/2 157/9/2
f 156/5/2 144/5/2 157/5/2
f 145/5/2 146/5/2 158/5/2
f 157/9/2 145/9/2 158/9/2
f 146/9/2 147/9/2 159/9/2
f 158/5/2 146/5/2 159/5/2
f 147/5/2 148/5/2 160/5/2
f 159/9/2 147/9/2 160/9/2
f 148/9/2 136/9/2 161/9/2
f 160/5/2 148/5/2 161/5/2
f 135/9/2 149/9/2 162/9/2
f 149/5/2 150/5/2 162/5/2
f 150/9/2 151/9/2 163/9/2
f 162/5/2 150/5/2 163/5/2
f 151/5/2 152/5/2 164/5/2
f 163/9/2 151/9/2 164/9/2
f 152/9/2 153/9/2 165/9/2
f 164/5/2 152/5/2 165/5/2
f 153/5/2 154/5/2 166/5/2
f 165/9/2 153/9/2 166/9/2
f 154/9/2 155/9/2 167/9/2
f 166/5/2 154/5/2 167/5/2
f 155/5/2 156/5/2 168/5/2
f 167/9/2 155/9/2 168/9/2
f 156/9/2 157/9/2 169/9/2
f 168/5/2 156/5/2 169/5/2
f 157/5/2 158/5/2 170/5/2
f 169/9/2 157/9/2 170/9/2
f 158/9/2 159/9/2 171/9/2
f 170/5/2 158/5/2 171/5/2
f 159/5/2 160/5/2 172/5/2
f 171/9/2 159/9/2 172/9/2
f 160/9/2 161/9/2 173/9/2
f 172/5/2 160/5/2 173/5/2
f 161/9/2 136/9/2 174/9/2
f 173/9/2 161/9/2 174/9/2
f 135/9/2 162/9/2 175/9/2
f 162/9/2 163/9/2 175/9/2
f 163/5/2 164/5/2 176/5/2
f 175/9/2 163/9/2 176/9/2
f 164/9/2 165/9/2 177/9/2
f 176/5/2 164/5/2 177/5/2
f 165/5/2 166/5/2 178/5/2
f 177/9/2 165/9/2 178/9/2
f 166/9/2 167/9/2 179/9/2
f 178/5/2 166/5/2 179/5/2
f 167/5/2 168/5/2 180/5/2
f 179/9/2 167/9/2 180/9/2
f 168/9/2 169/9/2 181/9/2
f 180/5/2 168/5/2 181/5/2
f 169/5/2 170/5/2 182/5/2
f 181/9/2 169/9/2 182/9/2
f 170/9/2 171/9/2 183/9/2
f 182/5/2 170/5/2 183/5/2
f 171/5/2 172/5/2 184/5/2
f 183/9/2 171/9/2 184/9/2
f 172/9/2 173/9/2 185/9/2
f 184/5/2 172/5/2 185/5/2
f 173/5/2 174/5/2 186/5/2
f 185/9/2 173/9/2 186/9/2
f 174/9/2 136/9/2 187/9/2
f 186/5/2 174/5/2 187/5/2
f 135/9/2 175/9/2 188/9/2
f 175/5/2 176/5/2 188/5/2
f 176/9/2 177/9/2 189/9/2
f 188/5/2 176/5/2 189/5/2
f 177/5/2 178/5/2 190/5/2
f 189/9/2 177/9/2 190/9/2
f 178/9/2 179/9/2 191/9/2
f 190/5/2 178/5/2 191/5/2
f 179/5/2 180/5/2 192/5/2
f 191/9/2 179/9/2 192/9/2
f 180/9/2 181/9/2 193/9/2
f 192/5/2 180/5/2 193/5/2
f 181/5/2 182/5/2 194/5/2
f 193/9/2 181/9/2 194/9/2
f 182/9/2 183/9/2 195/9/2
f 194/5/2 182/5/2 195/5/2
f 183/5/2 184/5/2 196/5/2
f 195/9/2 183/9/2 196/9/2
f 184/9/2 185/9/2 197/9/2
f 196/5/2 184/5/2 197/5/2
f 185/5/2 186/5/2 198/5/2
f 197/9/2 185/9/2 198/9/2
f 186/9/2 187/9/2 199/9/2
f 198/5/2 186/5/2 199/5/2
f 187/9/2 136/9/2 200/9/2
f 199/9/2 187/9/2 200/9/2
f 188/9/2 189/9/2 201/9/2
f 189/5/2 190/5/2 201/5/2
f 190/9/2 191/9/2 202/9/2
f 201/5/2 190/5/2 202/5/2
f 191/5/2 192/5/2 203/5/2
f 202/9/2 191/9/2 203/9/2
f 192/9/2 193/9/2 204/9/2
f 203/5/2 192/5/2 204/5/2
f 193/5/2 194/5/2 205/5/2
f 204/9/2 193/9/2 205/9/2
f 194/9/2 195/9/2 206/9/2
f 205/5/2 194/5/2 206/5/2
f 195/5/2 196/5/2 207/5/2
f 206/9/2 195/9/2 207/9/2
f 196/9/2 197/9/2 208/9/2
f 207/5/2 196/5/2 208/5/2
f 197/5/2 198/5/2 209/5/2
f 208/9/2 197/9/2 209/9/2
f 198/9/2 199/9/2 210/9/2
f 209/5/2 198/5/2 210/5/2
f 199/5/2 200/5/2 211/5/2
f 210/9/2 199/9/2 211/9/2
f 200/9/2 136/9/2 212/9/2
f 211/5/2 200/5/2 212/5/2
f 202/9/2 203/9/2 213/9/2
f 204/9/2 205/9/2 213/9/2
f 211/9/2 212/9/2 213/9/2
f 201/9/2 202/9/2 213/9/2
f 188/9/2 201/9/2 213/9/2
f 209/9/2 210/9/2 213/9/2
f 210/9/2 211/9/2 213/9/2
f 135/9/2 188/9/2 213/9/2
f 207/9/2 208/9/2 213/9/2
f 208/9/2 209/9/2 213/9/2
f 205/9/2 206/9/2 213/9/2
f 206/9/2 207/9/2 213/9/2
f 203/9/2 204/9/2 213/9/2
f 213/9/2 212/9/2 214/9/2
f 214/9/2 212/9/2 215/9/2
f 215/9/2 212/9/2 216/9/2
f 212/9/2 136/9/2 217/9/2
f 216/9/2 212/9/2 217/9/2
f 217/9/2 136/9/2 218/9/2
f 214/9/2 215/9/2 219/9/2
f 219/9/2 215/9/2 220/9/2
f 215/4/2 216/4/2 221/4/2
f 220/9/2 215/9/2 221/9/2
f 216/9/2 217/9/2 222/9/2
f 221/4/2 216/4/2 222/4/2
f 222/9/2 217/9/2 223/9/2
f 223/9/2 217/9/2 224/9/2
f 220/4/2 221/4/2 225/4/2
f 222/4/2 223/4/2 225/4/2
f 221/4/2 222/4/2 225/4/2
f 225/4/2 223/4/2 226/4/2
f 231/9/3 228/9/3 227/9/3
f 232/9/3 228/9/3 231/9/3
f 234/9/3 232/9/3 231/9/3
f 234/9/3 233/9/3 232/9/3
f 235/9/3 233/9/3 234/9/3
f 236/9/3 234/9/3 231/9/3
f 237/6/3 235/6/3 234/6/3
f 237/9/3 234/9/3 236/9/3
f 238/9/3 236/9/3 231/9/3
f 238/6/3 237/6/3 236/6/3
f 239/6/3 235/6/3 237/6/3
f 239/6/3 237/6/3 238/6/3
f 240/9/3 239/9/3 238/9/3
f 240/6/3 235/6/3 239/6/3
f 241/9/3 233/9/3 235/9/3
f 241/6/3 235/6/3 240/6/3
f 242/10/3 230/10/3 229/10/3
f 243/4/3 231/4/3 230/4/3
f 243/10/3 230/10/3 242/10/3
f 244/9/3 240/9/3 238/9/3
f 244/4/3 231/4/3 243/4/3
f 244/9/3 238/9/3 231/9/3
f 244/9/3 241/9/3 240/9/3
f 245/9/3 233/9/3 241/9/3
f 245/9/3 241/9/3 244/9/3
f 248/9/3 247/9/3 246/9/3
f 249/9/3 247/9/3 248/9/3
f 251/9/3 250/9/3 249/9/3
f 252/9/3 250/9/3 251/9/3
f 256/4/3 252/4/3 251/4/3
f 257/4/3 252/4/3 256/4/3
f 258/10/3 254/10/3 253/10/3
f 259/4/3 255/4/3 254/4/3
f 259/10/3 254/10/3 258/10/3
f 260/9/3 256/9/3 255/9/3
f 260/4/3 255/4/3 259/4/3
f 261/9/3 256/9/3 260/9/3
f 264/4/3 263/4/3 262/4/3
f 266/4/3 263/4/3 264/4/3
f 267/4/3 263/4/3 266/4/3
f 268/9/3 266/9/3 265/9/3
f 269/9/3 266/9/3 268/9/3
f 272/4/3 271/4/3 270/4/3
f 273/4/3 271/4/3 272/4/3
f 276/8/3 275/8/3 274/8/3
f 277/8/3 275/8/3 276/8/3
f 280/8/3 279/8/3 278/8/3
f 281/8/3 279/8/3 280/8/3
f 284/8/3 283/8/3 282/8/3
f 285/8/3 283/8/3 284/8/3
f 288/9/3 287/9/3 286/9/3
f 289/9/3 287/9/3 288/9/3
f 292/9/3 291/9/3 290/9/3
f 293/9/3 291/9/3 292/9/3
f 296/9/3 295/9/3 294/9/3
f 297/9/3 295/9/3 296/9/3
f 298/9/4 299/9/4 300/9/4
f 300/9/4 299/9/4 301/9/4
f 302/9/4 303/9/4 304/9/4
f 304/9/4 303/9/4 305/9/4
f 306/9/4 307/9/4 308/9/4
f 308/9/4 307/9/4 309/9/4
f 310/8/4 311/8/4 312/8/4
f 312/8/4 311/8/4 313/8/4
f 314/8/4 315/8/4 316/8/4
f 316/8/4 315/8/4 317/8/4
f 318/8/4 319/8/4 320/8/4
f 320/8/4 319/8/4 321/8/4
f 322/4/4 323/4/4 324/4/4
f 324/4/4 323/4/4 325/4/4
f 326/4/4 327/4/4 328/4/4
f 328/4/4 327/4/4 330/4/4
f 330/4/4 327/4/4 331/4/4
f 329/9/4 330/9/4 332/9/4
f 332/9/4 330/9/4 333/9/4
f 334/9/4 335/9/4 336/9/4
f 336/9/4 335/9/4 337/9/4
f 337/9/4 338/9/4 339/9/4
f 339/9/4 338/9/4 340/9/4
f 339/4/4 340/4/4 344/4/4
f 344/4/4 340/4/4 345/4/4
f 341/10/4 342/10/4 346/10/4
f 342/4/4 343/4/4 347/4/4
f 346/10/4 342/10/4 347/10/4
f 343/9/4 344/9/4 348/9/4
f 347/4/4 343/4/4 348/4/4
f 348/9/4 344/9/4 349/9/4
f 350/9/4 351/9/4 354/9/4
f 354/9/4 351/9/4 355/9/4
f 354/9/4 355/9/4 357/9/4
f 355/9/4 356/9/4 357/9/4
f 357/9/4 356/9/4 358/9/4
f 354/9/4 357/9/4 359/9/4
f 357/6/4 358/6/4 360/6/4
f 359/9/4 357/9/4 360/9/4
f 354/9/4 359/9/4 361/9/4
f 359/6/4 360/6/4 361/6/4
f 360/6/4 358/6/4 362/6/4
f 361/6/4 360/6/4 362/6/4
f 361/9/4 362/9/4 363/9/4
f 362/6/4 358/6/4 363/6/4
f 358/9/4 356/9/4 364/9/4
f 363/6/4 358/6/4 364/6/4
f 352/10/4 353/10/4 365/10/4
f 353/4/4 354/4/4 366/4/4
f 365/10/4 353/10/4 366/10/4
f 361/9/4 363/9/4 367/9/4
f 366/4/4 354/4/4 367/4/4
f 354/9/4 361/9/4 367/9/4
f 363/9/4 364/9/4 367/9/4
f 364/9/4 356/9/4 368/9/4
f 367/9/4 364/9/4 368/9/4
f 371/10/5 370/10/5 369/10/5
f 372/10/5 370/10/5 371/10/5
f 374/4/5 372/4/5 371/4/5
f 374/10/5 373/10/5 372/10/5
f 375/10/5 373/10/5 374/10/5
f 376/4/5 374/4/5 371/4/5
f 376/1/5 375/1/5 374/1/5
f 377/1/5 375/1/5 376/1/5
f 379/10/5 371/10/5 369/10/5
f 380/8/5 379/8/5 378/8/5
f 381/10/5 371/10/5 379/10/5
f 381/8/5 379/8/5 380/8/5
f 382/4/5 376/4/5 371/4/5
f 382/10/5 377/10/5 376/10/5
f 383/10/5 377/10/5 382/10/5
f 384/4/5 382/4/5 371/4/5
f 384/1/5 383/1/5 382/1/5
f 385/1/5 383/1/5 384/1/5
f 386/10/5 371/10/5 381/10/5
f 386/4/5 384/4/5 371/4/5
f 387/10/5 385/10/5 384/10/5
f 387/4/5 384/4/5 386/4/5
f 388/10/5 385/10/5 387/10/5
f 389/10/5 386/10/5 381/10/5
f 389/10/5 387/10/5 386/10/5
f 390/10/5 387/10/5 389/10/5
f 393/8/5 392/8/5 391/8/5
f 394/8/5 392/8/5 393/8/5
f 397/8/5 396/8/5 395/8/5
f 398/8/5 396/8/5 397/8/5
f 401/8/5 400/8/5 399/8/5
f 402/8/5 400/8/5 401/8/5
f 405/8/5 404/8/5 403/8/5
f 406/8/5 404/8/5 405/8/5
f 409/9/5 408/9/5 407/9/5
f 410/9/5 408/9/5 409/9/5
f 411/8/6 412/8/6 413/8/6
f 413/8/6 412/8/6 414/8/6
f 415/9/6 416/9/6 417/9/6
f 417/9/6 416/9/6 418/9/6
f 419/9/6 420/9/6 421/9/6
f 421/9/6 420/9/6 422/9/6
f 423/9/6 424/9/6 425/9/6
f 425/9/6 424/9/6 426/9/6
f 427/9/6 428/9/6 429/9/6
f 429/9/6 428/9/6 430/9/6
f 431/9/6 432/9/6 433/9/6
f 433/9/6 432/9/6 434/9/6
f 435/9/6 436/9/6 437/9/6
f 437/9/6 436/9/6 438/9/6
f 439/9/6 440/9/6 441/9/6
f 441/9/6 440/9/6 442/9/6
f 443/9/6 444/9/6 446/9/6
f 446/9/6 444/9/6 447/9/6
f 447/9/6 444/9/6 448/9/6
f 445/9/6 446/9/6 450/9/6
f 448/9/6 449/9/6 451/9/6
f 451/9/6 449/9/6 452/9/6
f 445/9/6 450/9/6 453/9/6
f 453/9/6 450/9/6 454/9/6
f 455/9/6 456/9/6 457/9/6
f 455/9/6 457/9/6 460/9/6
f 460/9/6 457/9/6 461/9/6
f 458/9/6 459/9/6 463/9/6
f 463/9/6 459/9/6 464/9/6
f 461/9/6 462/9/6 465/9/6
f 462/9/6 463/9/6 465/9/6
f 465/9/6 463/9/6 466/9/6
f 467/9/6 468/9/6 470/9/6
f 468/4/6 469/4/6 471/4/6
f 470/9/6 468/9/6 471/9/6
f 471/4/6 469/4/6 472/4/6
f 472/9/6 473/9/6 474/9/6
f 474/9/6 473/9/6 475/9/6
f 476/9/6 477/9/6 480/9/6
f 480/9/6 477/9/6 481/9/6
f 478/9/6 479/9/6 482/9/6
f 479/4/6 480/4/6 483/4/6
f 482/9/6 479/9/6 483/9/6
f 483/4/6 480/4/6 484/4/6
f 485/4/6 486/4/6 487/4/6
f 485/4/6 487/4/6 489/4/6
f 487/4/6 488/4/6 489/4/6
f 489/4/6 488/4/6 490/4/6
f 485/4/6 489/4/6 491/4/6
f 491/4/6 489/4/6 492/4/6
